# OBJ generated by ONSHAPE BY PTC INC, 1.201 Units = meters
mtllib OreSat_Simplified_Model.mtl
g Part 1
v -0.05185 0.035 -0.051 
v -0.0516 0.035 -0.051 
v -0.0516 -0.035 -0.051 
v -0.05185 -0.035 -0.051 
v -0.05185 0.035 -0.011 
v -0.0516 0.035 -0.011 
v -0.05185 -0.035 -0.011 
v -0.0516 -0.035 -0.011 
v -0.0516 0.05 -0.11 
v -0.0516 0.035 -0.109 
v -0.0516 0.035 -0.069 
v -0.0516 0.05 -0.01 
v -0.0516 -0.05 -0.11 
v -0.0516 -0.035 -0.109 
v -0.0516 -0.05 -0.01 
v -0.0516 -0.035 -0.069 
v -0.05 0.05 -0.01 
v -0.05 0.05 -0.11 
v -0.05 -0.05 -0.11 
v -0.05 -0.05 -0.01 
v -0.05185 -0.035 -0.069 
v -0.05185 0.035 -0.069 
v -0.05185 0.035 -0.109 
v -0.05185 -0.035 -0.109 
vn 6.06978e-33 9.91271e-17 -1 
vn 6.12323e-17 1 0 
vn -6.06978e-33 -9.91271e-17 1 
vn -6.12323e-17 -1 0 
vn -1 6.12323e-17 0 
vn 6.12323e-17 1 0 
vn 0 0 -1 
vn -6.12323e-17 -1 0 
vn 0 0 1 
vn 1 -6.12323e-17 0 
vn 6.12323e-17 1 0 
vn -6.06978e-33 -9.91271e-17 -1 
vn -6.12323e-17 -1 0 
vn -1 6.12323e-17 0 
usemtl 0.490196_0.086275_0.556863_0.000000_0.000000
o mesh0
f 1//1 2//1 3//1 
f 3//1 4//1 1//1 
o mesh1
f 5//2 6//2 2//2 
f 2//2 1//2 5//2 
o mesh2
f 7//3 8//3 6//3 
f 6//3 5//3 7//3 
o mesh3
f 4//4 3//4 8//4 
f 8//4 7//4 4//4 
usemtl 0.000000_0.000000_1.000000_0.000000_0.000000
o mesh4
f 5//5 1//5 4//5 
f 4//5 7//5 5//5 
usemtl 0.490196_0.086275_0.556863_0.000000_0.000000
o mesh5
f 9//5 10//5 11//5 
f 12//5 9//5 2//5 
f 11//5 2//5 9//5 
f 11//5 3//5 2//5 
f 9//5 13//5 14//5 
f 14//5 10//5 9//5 
f 13//5 15//5 16//5 
f 15//5 8//5 3//5 
f 16//5 14//5 13//5 
f 3//5 16//5 15//5 
f 3//5 11//5 16//5 
f 15//5 12//5 6//5 
f 6//5 8//5 15//5 
f 2//5 6//5 12//5 
o mesh6
f 12//6 17//6 18//6 
f 18//6 9//6 12//6 
o mesh7
f 9//7 18//7 19//7 
f 19//7 13//7 9//7 
o mesh8
f 13//8 19//8 20//8 
f 20//8 15//8 13//8 
o mesh9
f 15//9 20//9 17//9 
f 17//9 12//9 15//9 
o mesh10
f 19//10 18//10 17//10 
f 17//10 20//10 19//10 
o mesh11
f 21//9 16//9 11//9 
f 11//9 22//9 21//9 
o mesh12
f 22//11 11//11 10//11 
f 10//11 23//11 22//11 
o mesh13
f 23//12 10//12 14//12 
f 14//12 24//12 23//12 
o mesh14
f 24//13 14//13 16//13 
f 16//13 21//13 24//13 
usemtl 0.000000_0.000000_1.000000_0.000000_0.000000
o mesh15
f 24//14 21//14 22//14 
f 22//14 23//14 24//14 
g Part 1
v 0.035 0.05185 0.069 
v 0.035 0.0516 0.069 
v -0.035 0.0516 0.069 
v -0.035 0.05185 0.069 
v 0.035 0.05185 0.109 
v 0.035 0.0516 0.109 
v -0.035 0.05185 0.109 
v -0.035 0.0516 0.109 
v 0.05 0.0516 0.01 
v 0.035 0.0516 0.011 
v 0.035 0.0516 0.051 
v 0.05 0.0516 0.11 
v -0.05 0.0516 0.01 
v -0.035 0.0516 0.011 
v -0.05 0.0516 0.11 
v -0.035 0.0516 0.051 
v 0.05 0.05 0.11 
v 0.05 0.05 0.01 
v -0.05 0.05 0.01 
v -0.05 0.05 0.11 
v -0.035 0.05185 0.051 
v 0.035 0.05185 0.051 
v 0.035 0.05185 0.011 
v -0.035 0.05185 0.011 
vn 9.91271e-17 0 -1 
vn 1 0 0 
vn -9.91271e-17 0 1 
vn -1 0 0 
vn 0 1 0 
vn 1 0 0 
vn 0 0 -1 
vn -1 0 0 
vn 0 0 1 
vn 0 -1 0 
vn 1 0 0 
vn -9.91271e-17 0 -1 
vn -1 0 0 
vn 0 1 0 
usemtl 0.490196_0.086275_0.556863_0.000000_0.000000
o mesh0
f 25//15 26//15 27//15 
f 27//15 28//15 25//15 
o mesh1
f 29//16 30//16 26//16 
f 26//16 25//16 29//16 
o mesh2
f 31//17 32//17 30//17 
f 30//17 29//17 31//17 
o mesh3
f 28//18 27//18 32//18 
f 32//18 31//18 28//18 
usemtl 0.000000_0.000000_1.000000_0.000000_0.000000
o mesh4
f 29//19 25//19 28//19 
f 28//19 31//19 29//19 
usemtl 0.490196_0.086275_0.556863_0.000000_0.000000
o mesh5
f 33//19 34//19 35//19 
f 36//19 33//19 26//19 
f 35//19 26//19 33//19 
f 35//19 27//19 26//19 
f 33//19 37//19 38//19 
f 38//19 34//19 33//19 
f 37//19 39//19 40//19 
f 39//19 32//19 27//19 
f 40//19 38//19 37//19 
f 27//19 40//19 39//19 
f 27//19 35//19 40//19 
f 39//19 36//19 30//19 
f 30//19 32//19 39//19 
f 26//19 30//19 36//19 
o mesh6
f 36//20 41//20 42//20 
f 42//20 33//20 36//20 
o mesh7
f 33//21 42//21 43//21 
f 43//21 37//21 33//21 
o mesh8
f 37//22 43//22 44//22 
f 44//22 39//22 37//22 
o mesh9
f 39//23 44//23 41//23 
f 41//23 36//23 39//23 
o mesh10
f 43//24 42//24 41//24 
f 41//24 44//24 43//24 
o mesh11
f 45//23 40//23 35//23 
f 35//23 46//23 45//23 
o mesh12
f 46//25 35//25 34//25 
f 34//25 47//25 46//25 
o mesh13
f 47//26 34//26 38//26 
f 38//26 48//26 47//26 
o mesh14
f 48//27 38//27 40//27 
f 40//27 45//27 48//27 
usemtl 0.000000_0.000000_1.000000_0.000000_0.000000
o mesh15
f 48//28 45//28 46//28 
f 46//28 47//28 48//28 
g Part 1
v -0.051 -0.05 -0.01 
v -0.05 -0.05 -0.01 
v -0.05 -0.05 0.01 
v -0.051 -0.05 0.01 
v -0.05 0.05 0.01 
v -0.051 0.05 0.01 
v -0.05 0.05 -0.01 
v -0.051 0.05 -0.01 
v -0.051 0.00422049 0.00786458 
v -0.051 0.000508681 0.00786458 
v -0.051 -0.00626215 0.00786458 
v -0.051 -0.00290799 0.00215625 
v -0.051 0.0110434 -0.0006875 
v -0.051 0.00521701 -0.0006875 
v -0.051 0.0110434 -0.00339931 
v -0.051 0.00455729 -0.008 
v -0.051 0.00521701 -0.00339931 
v -0.051 -0.000706597 0.000180556 
v -0.051 -0.00988368 0.00786458 
v -0.051 -0.0102656 -0.008 
v -0.051 -0.00642535 -0.008 
v -0.051 -0.00490451 -3.47222e-06 
v -0.051 0.000953125 -0.008 
v -0.051 -0.00273437 -0.002 
v -0.052 -0.00642535 -0.008 
v -0.052 -0.0102656 -0.008 
v -0.052 -0.000706597 0.000180556 
v -0.052 0.00455729 -0.008 
v -0.052 0.000953125 -0.008 
v -0.052 -0.00490451 -3.47222e-06 
v -0.052 -0.00988368 0.00786458 
v -0.052 -0.00626215 0.00786458 
v -0.052 -0.00273437 -0.002 
v -0.052 -0.00290799 0.00215625 
v -0.052 0.000508681 0.00786458 
v -0.052 0.00422049 0.00786458 
v -0.052 0.0110434 -0.0006875 
v -0.052 0.0110434 -0.00339931 
v -0.052 0.00521701 -0.00339931 
v -0.052 0.00521701 -0.0006875 
vn 0 -1 0 
vn 0 0 1 
vn 0 1 0 
vn 0 0 -1 
vn 1 0 0 
vn -1 0 0 
vn 0 0 -1 
vn 0 -0.830605 0.556862 
vn 0 -0.84501 -0.53475 
vn 0 0 1 
vn 0 0.862177 0.506608 
vn 0 -0.858045 0.513574 
vn 0 0 1 
vn 0 0.841808 -0.539777 
vn 0 0.840946 0.541118 
vn 0 0 -1 
vn 0 -0.851963 -0.523602 
vn 0 0.851743 -0.52396 
vn 0 1 0 
vn 0 0 -1 
vn 0 -1 0 
vn 0 0 1 
vn -1 0 0 
usemtl 1.000000_0.000000_0.000000_0.000000_0.000000
o mesh16
f 49//29 50//29 51//29 
f 51//29 52//29 49//29 
o mesh17
f 52//30 51//30 53//30 
f 53//30 54//30 52//30 
o mesh18
f 54//31 53//31 55//31 
f 55//31 56//31 54//31 
o mesh19
f 56//32 55//32 50//32 
f 50//32 49//32 56//32 
o mesh20
f 53//33 51//33 50//33 
f 50//33 55//33 53//33 
o mesh21
f 54//34 57//34 58//34 
f 52//34 54//34 59//34 
f 58//34 59//34 54//34 
f 58//34 60//34 59//34 
f 57//34 54//34 61//34 
f 61//34 62//34 57//34 
f 56//34 63//34 61//34 
f 61//34 54//34 56//34 
f 64//34 65//34 63//34 
f 66//34 62//34 65//34 
f 52//34 67//34 68//34 
f 63//34 56//34 64//34 
f 66//34 57//34 62//34 
f 49//34 68//34 69//34 
f 67//34 70//34 68//34 
f 65//34 64//34 66//34 
f 56//34 49//34 71//34 
f 69//34 71//34 49//34 
f 59//34 67//34 52//34 
f 69//34 72//34 71//34 
f 71//34 64//34 56//34 
f 68//34 49//34 52//34 
o mesh22
f 73//35 69//35 68//35 
f 68//35 74//35 73//35 
usemtl 0.000000_0.000000_0.000000_0.000000_0.000000
o mesh23
f 75//34 76//34 77//34 
f 78//34 79//34 80//34 
f 81//34 82//34 75//34 
f 75//34 82//34 83//34 
f 82//34 81//34 78//34 
f 78//34 81//34 73//34 
f 83//34 84//34 75//34 
f 73//34 74//34 78//34 
f 80//34 82//34 78//34 
f 77//34 81//34 75//34 
usemtl 1.000000_0.000000_0.000000_0.000000_0.000000
o mesh24
f 74//36 68//36 70//36 
f 70//36 78//36 74//36 
o mesh25
f 78//37 70//37 67//37 
f 67//37 79//37 78//37 
o mesh26
f 79//38 67//38 59//38 
f 59//38 80//38 79//38 
o mesh27
f 80//39 59//39 60//39 
f 60//39 82//39 80//39 
o mesh28
f 82//40 60//40 58//40 
f 58//40 83//40 82//40 
o mesh29
f 83//41 58//41 57//41 
f 57//41 84//41 83//41 
o mesh30
f 84//42 57//42 66//42 
f 66//42 75//42 84//42 
o mesh31
f 75//43 66//43 64//43 
f 64//43 76//43 75//43 
o mesh32
f 76//44 64//44 71//44 
f 71//44 77//44 76//44 
o mesh33
f 77//45 71//45 72//45 
f 72//45 81//45 77//45 
o mesh34
f 81//46 72//46 69//46 
f 69//46 73//46 81//46 
o mesh35
f 85//47 61//47 63//47 
f 63//47 86//47 85//47 
o mesh36
f 86//48 63//48 65//48 
f 65//48 87//48 86//48 
o mesh37
f 87//49 65//49 62//49 
f 62//49 88//49 87//49 
o mesh38
f 88//50 62//50 61//50 
f 61//50 85//50 88//50 
usemtl 0.000000_0.000000_0.000000_0.000000_0.000000
o mesh39
f 88//51 85//51 86//51 
f 86//51 87//51 88//51 
g Part 1
v 0.05 -0.051 -0.01 
v 0.05 -0.05 -0.01 
v 0.05 -0.05 0.01 
v 0.05 -0.051 0.01 
v -0.05 -0.05 0.01 
v -0.05 -0.051 0.01 
v -0.05 -0.05 -0.01 
v -0.05 -0.051 -0.01 
v -0.00473958 -0.051 -0.0006875 
v 0.00118403 -0.051 -0.008 
v 0.00118403 -0.051 -0.00193403 
v -0.00407986 -0.051 0.00786458 
v -0.010566 -0.051 -0.0006875 
v -0.010566 -0.051 -0.00339931 
v -0.00473958 -0.051 -0.00339931 
v 0.00452431 -0.051 -0.008 
v -0.000434028 -0.051 0.00786458 
v 0.00616319 -0.051 0.00786458 
v 0.00978819 -0.051 0.00786458 
v 0.00285417 -0.051 0.00133333 
v 0.00452431 -0.051 -0.00182639 
v 0.00616319 -0.052 0.00786458 
v 0.00285417 -0.052 0.00133333 
v -0.00407986 -0.052 0.00786458 
v 0.00118403 -0.052 -0.00193403 
v 0.00978819 -0.052 0.00786458 
v 0.00118403 -0.052 -0.008 
v 0.00452431 -0.052 -0.008 
v 0.00452431 -0.052 -0.00182639 
v -0.000434028 -0.052 0.00786458 
v -0.010566 -0.052 -0.0006875 
v -0.010566 -0.052 -0.00339931 
v -0.00473958 -0.052 -0.00339931 
v -0.00473958 -0.052 -0.0006875 
vn 1 0 0 
vn 0 0 1 
vn -1 0 0 
vn 0 0 -1 
vn 0 1 0 
vn 0 -1 0 
vn -0.892043 0 0.45195 
vn 0.893189 0 0.449681 
vn 0 0 1 
vn -0.880932 0 -0.473243 
vn -1 0 0 
vn 0 0 -1 
vn 1 0 0 
vn 0.878736 0 -0.477307 
vn 0 0 1 
vn -1 0 0 
vn 0 0 -1 
vn 1 0 0 
vn 0 0 1 
vn 0 -1 0 
usemtl 0.000000_1.000000_0.000000_0.000000_0.000000
o mesh40
f 89//52 90//52 91//52 
f 91//52 92//52 89//52 
o mesh41
f 92//53 91//53 93//53 
f 93//53 94//53 92//53 
o mesh42
f 94//54 93//54 95//54 
f 95//54 96//54 94//54 
o mesh43
f 96//55 95//55 90//55 
f 90//55 89//55 96//55 
o mesh44
f 93//56 91//56 90//56 
f 90//56 95//56 93//56 
o mesh45
f 97//57 98//57 99//57 
f 100//57 94//57 101//57 
f 101//57 97//57 100//57 
f 96//57 102//57 101//57 
f 98//57 103//57 102//57 
f 89//57 104//57 98//57 
f 101//57 94//57 96//57 
f 98//57 96//57 89//57 
f 92//57 105//57 106//57 
f 102//57 96//57 98//57 
f 89//57 92//57 107//57 
f 105//57 108//57 106//57 
f 94//57 100//57 105//57 
f 98//57 97//57 103//57 
f 107//57 109//57 89//57 
f 105//57 92//57 94//57 
f 109//57 104//57 89//57 
f 99//57 100//57 97//57 
f 106//57 107//57 92//57 
o mesh46
f 110//58 106//58 108//58 
f 108//58 111//58 110//58 
usemtl 0.000000_0.000000_0.000000_0.000000_0.000000
o mesh47
f 112//57 113//57 111//57 
f 114//57 110//57 111//57 
f 115//57 116//57 117//57 
f 111//57 118//57 112//57 
f 117//57 111//57 115//57 
f 111//57 117//57 114//57 
f 113//57 115//57 111//57 
usemtl 0.000000_1.000000_0.000000_0.000000_0.000000
o mesh48
f 111//59 108//59 105//59 
f 105//59 118//59 111//59 
o mesh49
f 118//60 105//60 100//60 
f 100//60 112//60 118//60 
o mesh50
f 112//61 100//61 99//61 
f 99//61 113//61 112//61 
o mesh51
f 113//62 99//62 98//62 
f 98//62 115//62 113//62 
o mesh52
f 115//63 98//63 104//63 
f 104//63 116//63 115//63 
o mesh53
f 116//64 104//64 109//64 
f 109//64 117//64 116//64 
o mesh54
f 117//65 109//65 107//65 
f 107//65 114//65 117//65 
o mesh55
f 114//66 107//66 106//66 
f 106//66 110//66 114//66 
o mesh56
f 119//67 101//67 102//67 
f 102//67 120//67 119//67 
o mesh57
f 120//68 102//68 103//68 
f 103//68 121//68 120//68 
o mesh58
f 121//69 103//69 97//69 
f 97//69 122//69 121//69 
o mesh59
f 122//70 97//70 101//70 
f 101//70 119//70 122//70 
usemtl 0.000000_0.000000_0.000000_0.000000_0.000000
o mesh60
f 122//71 119//71 120//71 
f 120//71 121//71 122//71 
g Part 1
v -0.05185 0.035 0.069 
v -0.0516 0.035 0.069 
v -0.0516 -0.035 0.069 
v -0.05185 -0.035 0.069 
v -0.05185 0.035 0.109 
v -0.0516 0.035 0.109 
v -0.05185 -0.035 0.109 
v -0.0516 -0.035 0.109 
v -0.0516 0.05 0.01 
v -0.0516 0.035 0.011 
v -0.0516 0.035 0.051 
v -0.0516 0.05 0.11 
v -0.0516 -0.05 0.01 
v -0.0516 -0.035 0.011 
v -0.0516 -0.05 0.11 
v -0.0516 -0.035 0.051 
v -0.05 0.05 0.11 
v -0.05 0.05 0.01 
v -0.05 -0.05 0.01 
v -0.05 -0.05 0.11 
v -0.05185 -0.035 0.051 
v -0.05185 0.035 0.051 
v -0.05185 0.035 0.011 
v -0.05185 -0.035 0.011 
vn 6.06978e-33 9.91271e-17 -1 
vn 6.12323e-17 1 0 
vn -6.06978e-33 -9.91271e-17 1 
vn -6.12323e-17 -1 0 
vn -1 6.12323e-17 0 
vn 6.12323e-17 1 0 
vn 0 0 -1 
vn -6.12323e-17 -1 0 
vn 0 0 1 
vn 1 -6.12323e-17 0 
vn 6.12323e-17 1 0 
vn -6.06978e-33 -9.91271e-17 -1 
vn -6.12323e-17 -1 0 
vn -1 6.12323e-17 0 
usemtl 0.490196_0.086275_0.556863_0.000000_0.000000
o mesh0
f 123//72 124//72 125//72 
f 125//72 126//72 123//72 
o mesh1
f 127//73 128//73 124//73 
f 124//73 123//73 127//73 
o mesh2
f 129//74 130//74 128//74 
f 128//74 127//74 129//74 
o mesh3
f 126//75 125//75 130//75 
f 130//75 129//75 126//75 
usemtl 0.000000_0.000000_1.000000_0.000000_0.000000
o mesh4
f 127//76 123//76 126//76 
f 126//76 129//76 127//76 
usemtl 0.490196_0.086275_0.556863_0.000000_0.000000
o mesh5
f 131//76 132//76 133//76 
f 134//76 131//76 124//76 
f 133//76 124//76 131//76 
f 133//76 125//76 124//76 
f 131//76 135//76 136//76 
f 136//76 132//76 131//76 
f 135//76 137//76 138//76 
f 137//76 130//76 125//76 
f 138//76 136//76 135//76 
f 125//76 138//76 137//76 
f 125//76 133//76 138//76 
f 137//76 134//76 128//76 
f 128//76 130//76 137//76 
f 124//76 128//76 134//76 
o mesh6
f 134//77 139//77 140//77 
f 140//77 131//77 134//77 
o mesh7
f 131//78 140//78 141//78 
f 141//78 135//78 131//78 
o mesh8
f 135//79 141//79 142//79 
f 142//79 137//79 135//79 
o mesh9
f 137//80 142//80 139//80 
f 139//80 134//80 137//80 
o mesh10
f 141//81 140//81 139//81 
f 139//81 142//81 141//81 
o mesh11
f 143//80 138//80 133//80 
f 133//80 144//80 143//80 
o mesh12
f 144//82 133//82 132//82 
f 132//82 145//82 144//82 
o mesh13
f 145//83 132//83 136//83 
f 136//83 146//83 145//83 
o mesh14
f 146//84 136//84 138//84 
f 138//84 143//84 146//84 
usemtl 0.000000_0.000000_1.000000_0.000000_0.000000
o mesh15
f 146//85 143//85 144//85 
f 144//85 145//85 146//85 
g Part 1
v 0.05 -0.05 -0.01 
v 0.05 -0.052 -0.01 
v 0.05 -0.052 -0.11 
v 0.05 -0.05 -0.11 
v -0.05 -0.052 -0.11 
v -0.05 -0.05 -0.11 
v -0.05 -0.052 -0.01 
v -0.05 -0.05 -0.01 
vn 1 1.22465e-16 6.93889e-17 
vn 0 0 -1 
vn -1 -1.22465e-16 -6.93889e-17 
vn 0 0 1 
vn -1.22465e-16 1 0 
vn 1.22465e-16 -1 0 
usemtl 0.980392_0.713725_0.003922_0.000000_0.000000
o mesh61
f 147//86 148//86 149//86 
f 149//86 150//86 147//86 
o mesh62
f 150//87 149//87 151//87 
f 151//87 152//87 150//87 
o mesh63
f 152//88 151//88 153//88 
f 153//88 154//88 152//88 
o mesh64
f 154//89 153//89 148//89 
f 148//89 147//89 154//89 
o mesh65
f 154//90 147//90 150//90 
f 150//90 152//90 154//90 
o mesh66
f 151//91 149//91 148//91 
f 148//91 153//91 151//91 
g Part 1
v -0.05 0.05 -0.01 
v -0.05 0.052 -0.01 
v -0.05 0.052 -0.11 
v -0.05 0.05 -0.11 
v 0.05 0.052 -0.11 
v 0.05 0.05 -0.11 
v 0.05 0.052 -0.01 
v 0.05 0.05 -0.01 
vn -1 0 6.93889e-17 
vn 0 0 -1 
vn 1 0 -6.93889e-17 
vn 0 0 1 
vn 0 -1 0 
vn 0 1 0 
o mesh61
f 155//92 156//92 157//92 
f 157//92 158//92 155//92 
o mesh62
f 158//93 157//93 159//93 
f 159//93 160//93 158//93 
o mesh63
f 160//94 159//94 161//94 
f 161//94 162//94 160//94 
o mesh64
f 162//95 161//95 156//95 
f 156//95 155//95 162//95 
o mesh65
f 162//96 155//96 158//96 
f 158//96 160//96 162//96 
o mesh66
f 159//97 157//97 156//97 
f 156//97 161//97 159//97 
g Part 1
v 0.05185 -0.035 0.069 
v 0.0516 -0.035 0.069 
v 0.0516 0.035 0.069 
v 0.05185 0.035 0.069 
v 0.05185 -0.035 0.109 
v 0.0516 -0.035 0.109 
v 0.05185 0.035 0.109 
v 0.0516 0.035 0.109 
v 0.0516 -0.05 0.01 
v 0.0516 -0.035 0.011 
v 0.0516 -0.035 0.051 
v 0.0516 -0.05 0.11 
v 0.0516 0.05 0.01 
v 0.0516 0.035 0.011 
v 0.0516 0.05 0.11 
v 0.0516 0.035 0.051 
v 0.05 -0.05 0.11 
v 0.05 -0.05 0.01 
v 0.05 0.05 0.01 
v 0.05 0.05 0.11 
v 0.05185 0.035 0.051 
v 0.05185 -0.035 0.051 
v 0.05185 -0.035 0.011 
v 0.05185 0.035 0.011 
vn -1.82093e-32 -9.91271e-17 -1 
vn -1.83697e-16 -1 0 
vn 1.82093e-32 9.91271e-17 1 
vn 1.83697e-16 1 0 
vn 1 -1.83697e-16 0 
vn -1.83697e-16 -1 0 
vn 0 0 -1 
vn 1.83697e-16 1 0 
vn 0 0 1 
vn -1 1.83697e-16 0 
vn -1.83697e-16 -1 0 
vn 1.82093e-32 9.91271e-17 -1 
vn 1.83697e-16 1 0 
vn 1 -1.83697e-16 0 
usemtl 0.490196_0.086275_0.556863_0.000000_0.000000
o mesh0
f 163//98 164//98 165//98 
f 165//98 166//98 163//98 
o mesh1
f 167//99 168//99 164//99 
f 164//99 163//99 167//99 
o mesh2
f 169//100 170//100 168//100 
f 168//100 167//100 169//100 
o mesh3
f 166//101 165//101 170//101 
f 170//101 169//101 166//101 
usemtl 0.000000_0.000000_1.000000_0.000000_0.000000
o mesh4
f 167//102 163//102 166//102 
f 166//102 169//102 167//102 
usemtl 0.490196_0.086275_0.556863_0.000000_0.000000
o mesh5
f 171//102 172//102 173//102 
f 174//102 171//102 164//102 
f 173//102 164//102 171//102 
f 173//102 165//102 164//102 
f 171//102 175//102 176//102 
f 176//102 172//102 171//102 
f 175//102 177//102 178//102 
f 177//102 170//102 165//102 
f 178//102 176//102 175//102 
f 165//102 178//102 177//102 
f 165//102 173//102 178//102 
f 177//102 174//102 168//102 
f 168//102 170//102 177//102 
f 164//102 168//102 174//102 
o mesh6
f 174//103 179//103 180//103 
f 180//103 171//103 174//103 
o mesh7
f 171//104 180//104 181//104 
f 181//104 175//104 171//104 
o mesh8
f 175//105 181//105 182//105 
f 182//105 177//105 175//105 
o mesh9
f 177//106 182//106 179//106 
f 179//106 174//106 177//106 
o mesh10
f 181//107 180//107 179//107 
f 179//107 182//107 181//107 
o mesh11
f 183//106 178//106 173//106 
f 173//106 184//106 183//106 
o mesh12
f 184//108 173//108 172//108 
f 172//108 185//108 184//108 
o mesh13
f 185//109 172//109 176//109 
f 176//109 186//109 185//109 
o mesh14
f 186//110 176//110 178//110 
f 178//110 183//110 186//110 
usemtl 0.000000_0.000000_1.000000_0.000000_0.000000
o mesh15
f 186//111 183//111 184//111 
f 184//111 185//111 186//111 
g Part 1
v -0.05 0.051 -0.01 
v -0.05 0.05 -0.01 
v -0.05 0.05 0.01 
v -0.05 0.051 0.01 
v 0.05 0.05 0.01 
v 0.05 0.051 0.01 
v 0.05 0.05 -0.01 
v 0.05 0.051 -0.01 
v 0.00226736 0.051 0.00101736 
v -0.00395139 0.051 -0.008 
v -0.00395139 0.051 -0.00193403 
v 0.0013125 0.051 0.00786458 
v 0.00646528 0.051 0.00525 
v 0.00646528 0.051 0.00101736 
v 0.00884375 0.051 0.00525 
v 0.0130417 0.051 0.00101736 
v 0.00884375 0.051 0.00101736 
v 0.0130417 0.051 -0.00135764 
v 0.00646528 0.051 -0.00553819 
v 0.00884375 0.051 -0.00553819 
v 0.00884375 0.051 -0.00135764 
v 0.00226736 0.051 -0.00135764 
v -0.00729167 0.051 -0.008 
v -0.00233333 0.051 0.00786458 
v -0.00893056 0.051 0.00786458 
v 0.00646528 0.051 -0.00135764 
v -0.0125556 0.051 0.00786458 
v -0.00562153 0.051 0.00133333 
v -0.00729167 0.051 -0.00182639 
v -0.00893056 0.052 0.00786458 
v -0.00562153 0.052 0.00133333 
v 0.0013125 0.052 0.00786458 
v -0.00395139 0.052 -0.00193403 
v -0.0125556 0.052 0.00786458 
v -0.00395139 0.052 -0.008 
v -0.00729167 0.052 -0.008 
v -0.00729167 0.052 -0.00182639 
v -0.00233333 0.052 0.00786458 
v 0.0130417 0.052 -0.00135764 
v 0.00884375 0.052 -0.00135764 
v 0.00226736 0.052 0.00101736 
v 0.00646528 0.052 0.00101736 
v 0.00646528 0.052 -0.00135764 
v 0.00884375 0.052 0.00101736 
v 0.00646528 0.052 -0.00553819 
v 0.00884375 0.052 0.00525 
v 0.00884375 0.052 -0.00553819 
v 0.00646528 0.052 0.00525 
v 0.0130417 0.052 0.00101736 
v 0.00226736 0.052 -0.00135764 
vn -1 0 0 
vn 0 0 1 
vn 1 0 0 
vn 0 0 -1 
vn 0 -1 0 
vn 0 1 0 
vn 0.892043 0 0.45195 
vn -0.893189 0 0.449681 
vn 0 0 1 
vn 0.880932 0 -0.473243 
vn 1 0 0 
vn 0 0 -1 
vn -1 0 0 
vn -0.878736 0 -0.477307 
vn 0 0 1 
vn 0 0 -1 
vn 0 1 0 
vn 1 0 0 
vn 0 0 -1 
vn -1 0 0 
vn 0 0 1 
vn 1 0 0 
usemtl 0.000000_1.000000_0.000000_0.000000_0.000000
o mesh67
f 187//112 188//112 189//112 
f 189//112 190//112 187//112 
o mesh68
f 190//113 189//113 191//113 
f 191//113 192//113 190//113 
o mesh69
f 192//114 191//114 193//114 
f 193//114 194//114 192//114 
o mesh70
f 194//115 193//115 188//115 
f 188//115 187//115 194//115 
o mesh71
f 191//116 189//116 188//116 
f 188//116 193//116 191//116 
o mesh72
f 195//117 196//117 197//117 
f 195//117 198//117 199//117 
f 199//117 200//117 195//117 
f 198//117 192//117 201//117 
f 201//117 199//117 198//117 
f 201//117 192//117 202//117 
f 202//117 203//117 201//117 
f 194//117 204//117 202//117 
f 196//117 205//117 206//117 
f 202//117 192//117 194//117 
f 206//117 207//117 204//117 
f 196//117 208//117 205//117 
f 187//117 209//117 196//117 
f 204//117 194//117 206//117 
f 196//117 194//117 187//117 
f 206//117 194//117 196//117 
f 190//117 210//117 211//117 
f 208//117 212//117 205//117 
f 187//117 190//117 213//117 
f 210//117 214//117 211//117 
f 190//117 192//117 198//117 
f 196//117 195//117 208//117 
f 213//117 215//117 187//117 
f 198//117 210//117 190//117 
f 215//117 209//117 187//117 
f 197//117 198//117 195//117 
f 211//117 213//117 190//117 
o mesh73
f 216//118 211//118 214//118 
f 214//118 217//118 216//118 
usemtl 0.917647_0.917647_0.917647_0.000000_0.000000
o mesh74
f 218//117 219//117 217//117 
f 220//117 216//117 217//117 
f 221//117 222//117 223//117 
f 217//117 224//117 218//117 
f 223//117 217//117 221//117 
f 217//117 223//117 220//117 
f 219//117 221//117 217//117 
usemtl 0.000000_1.000000_0.000000_0.000000_0.000000
o mesh75
f 217//119 214//119 210//119 
f 210//119 224//119 217//119 
o mesh76
f 224//120 210//120 198//120 
f 198//120 218//120 224//120 
o mesh77
f 218//121 198//121 197//121 
f 197//121 219//121 218//121 
o mesh78
f 219//122 197//122 196//122 
f 196//122 221//122 219//122 
o mesh79
f 221//123 196//123 209//123 
f 209//123 222//123 221//123 
o mesh80
f 222//124 209//124 215//124 
f 215//124 223//124 222//124 
o mesh81
f 223//125 215//125 213//125 
f 213//125 220//125 223//125 
o mesh82
f 220//126 213//126 211//126 
f 211//126 216//126 220//126 
o mesh83
f 225//127 204//127 207//127 
f 207//127 226//127 225//127 
usemtl 0.917647_0.917647_0.917647_0.000000_0.000000
o mesh84
f 227//128 228//128 229//128 
f 225//128 226//128 230//128 
f 228//128 226//128 229//128 
f 231//128 229//128 226//128 
f 226//128 228//128 230//128 
f 232//128 230//128 228//128 
f 226//128 233//128 231//128 
f 228//128 234//128 232//128 
f 230//128 235//128 225//128 
f 229//128 236//128 227//128 
usemtl 0.000000_1.000000_0.000000_0.000000_0.000000
o mesh85
f 226//129 207//129 206//129 
f 206//129 233//129 226//129 
o mesh86
f 233//130 206//130 205//130 
f 205//130 231//130 233//130 
o mesh87
f 231//131 205//131 212//131 
f 212//131 229//131 231//131 
o mesh88
f 229//130 212//130 208//130 
f 208//130 236//130 229//130 
o mesh89
f 236//131 208//131 195//131 
f 195//131 227//131 236//131 
o mesh90
f 227//132 195//132 200//132 
f 200//132 228//132 227//132 
o mesh91
f 228//131 200//131 199//131 
f 199//131 234//131 228//131 
o mesh92
f 234//132 199//132 201//132 
f 201//132 232//132 234//132 
o mesh93
f 232//133 201//133 203//133 
f 203//133 230//133 232//133 
o mesh94
f 230//132 203//132 202//132 
f 202//132 235//132 230//132 
o mesh95
f 235//133 202//133 204//133 
f 204//133 225//133 235//133 
g Part 1
v 0.05 -0.05 0.11 
v 0.05 -0.05 -0.11 
v 0.05 0.05 -0.11 
v 0.05 0.05 0.11 
v -0.05 0.05 -0.11 
v -0.05 0.05 0.11 
v -0.05 -0.05 -0.11 
v -0.05 -0.05 0.11 
vn 1 0 0 
vn 0 1 0 
vn -1 0 0 
vn 0 -1 0 
vn 0 0 1 
vn 0 0 -1 
usemtl 0.498039_0.498039_0.498039_0.000000_0.000000
o mesh96
f 237//134 238//134 239//134 
f 239//134 240//134 237//134 
o mesh97
f 240//135 239//135 241//135 
f 241//135 242//135 240//135 
o mesh98
f 242//136 241//136 243//136 
f 243//136 244//136 242//136 
o mesh99
f 244//137 243//137 238//137 
f 238//137 237//137 244//137 
o mesh100
f 244//138 237//138 240//138 
f 240//138 242//138 244//138 
o mesh101
f 241//139 239//139 238//139 
f 238//139 243//139 241//139 
g Part 1
v -0.035 -0.05185 0.069 
v -0.035 -0.0516 0.069 
v 0.035 -0.0516 0.069 
v 0.035 -0.05185 0.069 
v -0.035 -0.05185 0.109 
v -0.035 -0.0516 0.109 
v 0.035 -0.05185 0.109 
v 0.035 -0.0516 0.109 
v -0.05 -0.0516 0.01 
v -0.035 -0.0516 0.011 
v -0.035 -0.0516 0.051 
v -0.05 -0.0516 0.11 
v 0.05 -0.0516 0.01 
v 0.035 -0.0516 0.011 
v 0.05 -0.0516 0.11 
v 0.035 -0.0516 0.051 
v -0.05 -0.05 0.11 
v -0.05 -0.05 0.01 
v 0.05 -0.05 0.01 
v 0.05 -0.05 0.11 
v 0.035 -0.05185 0.051 
v -0.035 -0.05185 0.051 
v -0.035 -0.05185 0.011 
v 0.035 -0.05185 0.011 
vn -3.25497e-16 3.12936e-32 -1 
vn -1 1.22465e-16 2.2637e-16 
vn 3.25497e-16 -3.12936e-32 1 
vn 1 -1.22465e-16 -2.2637e-16 
vn -1.22465e-16 -1 2.22045e-16 
vn -1 1.22465e-16 2.2637e-16 
vn -2.2637e-16 1.9154e-32 -1 
vn 1 -1.22465e-16 -2.2637e-16 
vn 2.2637e-16 -1.9154e-32 1 
vn 1.22465e-16 1 -2.22045e-16 
vn -1 1.22465e-16 2.2637e-16 
vn -1.27243e-16 7.01446e-33 -1 
vn 1 -1.22465e-16 -2.2637e-16 
vn -1.22465e-16 -1 2.22045e-16 
usemtl 0.490196_0.086275_0.556863_0.000000_0.000000
o mesh0
f 245//140 246//140 247//140 
f 247//140 248//140 245//140 
o mesh1
f 249//141 250//141 246//141 
f 246//141 245//141 249//141 
o mesh2
f 251//142 252//142 250//142 
f 250//142 249//142 251//142 
o mesh3
f 248//143 247//143 252//143 
f 252//143 251//143 248//143 
usemtl 0.000000_0.000000_1.000000_0.000000_0.000000
o mesh4
f 249//144 245//144 248//144 
f 248//144 251//144 249//144 
usemtl 0.490196_0.086275_0.556863_0.000000_0.000000
o mesh5
f 253//144 254//144 255//144 
f 256//144 253//144 246//144 
f 255//144 246//144 253//144 
f 255//144 247//144 246//144 
f 253//144 257//144 258//144 
f 258//144 254//144 253//144 
f 257//144 259//144 260//144 
f 259//144 252//144 247//144 
f 260//144 258//144 257//144 
f 247//144 260//144 259//144 
f 247//144 255//144 260//144 
f 259//144 256//144 250//144 
f 250//144 252//144 259//144 
f 246//144 250//144 256//144 
o mesh6
f 256//145 261//145 262//145 
f 262//145 253//145 256//145 
o mesh7
f 253//146 262//146 263//146 
f 263//146 257//146 253//146 
o mesh8
f 257//147 263//147 264//147 
f 264//147 259//147 257//147 
o mesh9
f 259//148 264//148 261//148 
f 261//148 256//148 259//148 
o mesh10
f 263//149 262//149 261//149 
f 261//149 264//149 263//149 
o mesh11
f 265//148 260//148 255//148 
f 255//148 266//148 265//148 
o mesh12
f 266//150 255//150 254//150 
f 254//150 267//150 266//150 
o mesh13
f 267//151 254//151 258//151 
f 258//151 268//151 267//151 
o mesh14
f 268//152 258//152 260//152 
f 260//152 265//152 268//152 
usemtl 0.000000_0.000000_1.000000_0.000000_0.000000
o mesh15
f 268//153 265//153 266//153 
f 266//153 267//153 268//153 
g Part 1
v 0.05185 -0.035 -0.051 
v 0.0516 -0.035 -0.051 
v 0.0516 0.035 -0.051 
v 0.05185 0.035 -0.051 
v 0.05185 -0.035 -0.011 
v 0.0516 -0.035 -0.011 
v 0.05185 0.035 -0.011 
v 0.0516 0.035 -0.011 
v 0.0516 -0.05 -0.11 
v 0.0516 -0.035 -0.109 
v 0.0516 -0.035 -0.069 
v 0.0516 -0.05 -0.01 
v 0.0516 0.05 -0.11 
v 0.0516 0.035 -0.109 
v 0.0516 0.05 -0.01 
v 0.0516 0.035 -0.069 
v 0.05 -0.05 -0.01 
v 0.05 -0.05 -0.11 
v 0.05 0.05 -0.11 
v 0.05 0.05 -0.01 
v 0.05185 0.035 -0.069 
v 0.05185 -0.035 -0.069 
v 0.05185 -0.035 -0.109 
v 0.05185 0.035 -0.109 
vn -1.82093e-32 -9.91271e-17 -1 
vn -1.83697e-16 -1 0 
vn 1.82093e-32 9.91271e-17 1 
vn 1.83697e-16 1 0 
vn 1 -1.83697e-16 0 
vn -1.83697e-16 -1 0 
vn 0 0 -1 
vn 1.83697e-16 1 0 
vn 0 0 1 
vn -1 1.83697e-16 0 
vn -1.83697e-16 -1 0 
vn 1.82093e-32 9.91271e-17 -1 
vn 1.83697e-16 1 0 
vn 1 -1.83697e-16 0 
usemtl 0.490196_0.086275_0.556863_0.000000_0.000000
o mesh0
f 269//154 270//154 271//154 
f 271//154 272//154 269//154 
o mesh1
f 273//155 274//155 270//155 
f 270//155 269//155 273//155 
o mesh2
f 275//156 276//156 274//156 
f 274//156 273//156 275//156 
o mesh3
f 272//157 271//157 276//157 
f 276//157 275//157 272//157 
usemtl 0.000000_0.000000_1.000000_0.000000_0.000000
o mesh4
f 273//158 269//158 272//158 
f 272//158 275//158 273//158 
usemtl 0.490196_0.086275_0.556863_0.000000_0.000000
o mesh5
f 277//158 278//158 279//158 
f 280//158 277//158 270//158 
f 279//158 270//158 277//158 
f 279//158 271//158 270//158 
f 277//158 281//158 282//158 
f 282//158 278//158 277//158 
f 281//158 283//158 284//158 
f 283//158 276//158 271//158 
f 284//158 282//158 281//158 
f 271//158 284//158 283//158 
f 271//158 279//158 284//158 
f 283//158 280//158 274//158 
f 274//158 276//158 283//158 
f 270//158 274//158 280//158 
o mesh6
f 280//159 285//159 286//159 
f 286//159 277//159 280//159 
o mesh7
f 277//160 286//160 287//160 
f 287//160 281//160 277//160 
o mesh8
f 281//161 287//161 288//161 
f 288//161 283//161 281//161 
o mesh9
f 283//162 288//162 285//162 
f 285//162 280//162 283//162 
o mesh10
f 287//163 286//163 285//163 
f 285//163 288//163 287//163 
o mesh11
f 289//162 284//162 279//162 
f 279//162 290//162 289//162 
o mesh12
f 290//164 279//164 278//164 
f 278//164 291//164 290//164 
o mesh13
f 291//165 278//165 282//165 
f 282//165 292//165 291//165 
o mesh14
f 292//166 282//166 284//166 
f 284//166 289//166 292//166 
usemtl 0.000000_0.000000_1.000000_0.000000_0.000000
o mesh15
f 292//167 289//167 290//167 
f 290//167 291//167 292//167 
g Part 1
v 0.051 0.05 -0.01 
v 0.05 0.05 -0.01 
v 0.05 0.05 0.01 
v 0.051 0.05 0.01 
v 0.05 -0.05 0.01 
v 0.051 -0.05 0.01 
v 0.05 -0.05 -0.01 
v 0.051 -0.05 -0.01 
v 0.051 -0.00145312 0.00786458 
v 0.051 0.00225868 0.00786458 
v 0.051 -0.00932118 0.00525 
v 0.051 -0.00694271 0.00525 
v 0.051 0.00902951 0.00786458 
v 0.051 -0.00274479 0.00101736 
v 0.051 0.00567535 0.00215625 
v 0.051 0.012651 0.00786458 
v 0.051 -0.0135191 0.00101736 
v 0.051 -0.00932118 0.00101736 
v 0.051 -0.0135191 -0.00135764 
v 0.051 -0.00932118 -0.00553819 
v 0.051 -0.00932118 -0.00135764 
v 0.051 -0.00178993 -0.008 
v 0.051 -0.00694271 -0.00553819 
v 0.051 -0.00274479 -0.00135764 
v 0.051 -0.00694271 -0.00135764 
v 0.051 0.00347396 0.000180556 
v 0.051 0.013033 -0.008 
v 0.051 0.00919271 -0.008 
v 0.051 0.00767187 -3.47222e-06 
v 0.051 0.00181424 -0.008 
v 0.051 -0.00694271 0.00101736 
v 0.051 0.00550174 -0.002 
v 0.052 0.00919271 -0.008 
v 0.052 0.013033 -0.008 
v 0.052 0.00347396 0.000180556 
v 0.052 -0.00178993 -0.008 
v 0.052 0.00181424 -0.008 
v 0.052 0.00767187 -3.47222e-06 
v 0.052 0.012651 0.00786458 
v 0.052 0.00902951 0.00786458 
v 0.052 0.00550174 -0.002 
v 0.052 0.00567535 0.00215625 
v 0.052 0.00225868 0.00786458 
v 0.052 -0.00145312 0.00786458 
v 0.052 -0.0135191 -0.00135764 
v 0.052 -0.00932118 -0.00135764 
v 0.052 -0.00274479 0.00101736 
v 0.052 -0.00694271 0.00101736 
v 0.052 -0.00694271 -0.00135764 
v 0.052 -0.00932118 0.00101736 
v 0.052 -0.00694271 -0.00553819 
v 0.052 -0.00932118 0.00525 
v 0.052 -0.00932118 -0.00553819 
v 0.052 -0.00694271 0.00525 
v 0.052 -0.0135191 0.00101736 
v 0.052 -0.00274479 -0.00135764 
vn 0 1 0 
vn 0 0 1 
vn 0 -1 0 
vn 0 0 -1 
vn -1 0 0 
vn 1 0 0 
vn 0 0 -1 
vn 0 0.830605 0.556862 
vn 0 0.84501 -0.53475 
vn 0 0 1 
vn 0 -0.862177 0.506608 
vn 0 0.858045 0.513574 
vn 0 0 1 
vn 0 -0.841808 -0.539777 
vn 0 -0.840946 0.541118 
vn 0 0 -1 
vn 0 0.851963 -0.523602 
vn 0 -0.851743 -0.52396 
vn 0 0 -1 
vn 1 0 0 
vn 0 -1 0 
vn 0 0 -1 
vn 0 1 0 
vn 0 0 1 
vn 0 -1 0 
usemtl 1.000000_0.000000_0.000000_0.000000_0.000000
o mesh102
f 293//168 294//168 295//168 
f 295//168 296//168 293//168 
o mesh103
f 296//169 295//169 297//169 
f 297//169 298//169 296//169 
o mesh104
f 298//170 297//170 299//170 
f 299//170 300//170 298//170 
o mesh105
f 300//171 299//171 294//171 
f 294//171 293//171 300//171 
o mesh106
f 297//172 295//172 294//172 
f 294//172 299//172 297//172 
o mesh107
f 298//173 301//173 302//173 
f 301//173 298//173 303//173 
f 303//173 304//173 301//173 
f 296//173 298//173 305//173 
f 302//173 305//173 298//173 
f 306//173 301//173 304//173 
f 302//173 307//173 305//173 
f 305//173 308//173 296//173 
f 303//173 298//173 309//173 
f 309//173 310//173 303//173 
f 300//173 311//173 309//173 
f 309//173 298//173 300//173 
f 312//173 313//173 311//173 
f 311//173 300//173 312//173 
f 314//173 315//173 312//173 
f 312//173 300//173 314//173 
f 316//173 317//173 315//173 
f 318//173 301//173 306//173 
f 296//173 308//173 319//173 
f 315//173 314//173 316//173 
f 306//173 316//173 318//173 
f 293//173 319//173 320//173 
f 308//173 321//173 319//173 
f 316//173 314//173 318//173 
f 293//173 322//173 314//173 
f 320//173 322//173 293//173 
f 304//173 323//173 306//173 
f 320//173 324//173 322//173 
f 314//173 300//173 293//173 
f 319//173 293//173 296//173 
o mesh108
f 325//174 320//174 319//174 
f 319//174 326//174 325//174 
usemtl 0.917647_0.917647_0.917647_0.000000_0.000000
o mesh109
f 327//173 328//173 329//173 
f 330//173 331//173 332//173 
f 333//173 334//173 327//173 
f 327//173 334//173 335//173 
f 334//173 333//173 330//173 
f 330//173 333//173 325//173 
f 335//173 336//173 327//173 
f 325//173 326//173 330//173 
f 332//173 334//173 330//173 
f 329//173 333//173 327//173 
usemtl 1.000000_0.000000_0.000000_0.000000_0.000000
o mesh110
f 326//175 319//175 321//175 
f 321//175 330//175 326//175 
o mesh111
f 330//176 321//176 308//176 
f 308//176 331//176 330//176 
o mesh112
f 331//177 308//177 305//177 
f 305//177 332//177 331//177 
o mesh113
f 332//178 305//178 307//178 
f 307//178 334//178 332//178 
o mesh114
f 334//179 307//179 302//179 
f 302//179 335//179 334//179 
o mesh115
f 335//180 302//180 301//180 
f 301//180 336//180 335//180 
o mesh116
f 336//181 301//181 318//181 
f 318//181 327//181 336//181 
o mesh117
f 327//182 318//182 314//182 
f 314//182 328//182 327//182 
o mesh118
f 328//183 314//183 322//183 
f 322//183 329//183 328//183 
o mesh119
f 329//184 322//184 324//184 
f 324//184 333//184 329//184 
o mesh120
f 333//185 324//185 320//185 
f 320//185 325//185 333//185 
o mesh121
f 337//186 311//186 313//186 
f 313//186 338//186 337//186 
usemtl 0.917647_0.917647_0.917647_0.000000_0.000000
o mesh122
f 339//187 340//187 341//187 
f 337//187 338//187 342//187 
f 340//187 338//187 341//187 
f 343//187 341//187 338//187 
f 338//187 340//187 342//187 
f 344//187 342//187 340//187 
f 338//187 345//187 343//187 
f 340//187 346//187 344//187 
f 342//187 347//187 337//187 
f 341//187 348//187 339//187 
usemtl 1.000000_0.000000_0.000000_0.000000_0.000000
o mesh123
f 338//188 313//188 312//188 
f 312//188 345//188 338//188 
o mesh124
f 345//189 312//189 315//189 
f 315//189 343//189 345//189 
o mesh125
f 343//190 315//190 317//190 
f 317//190 341//190 343//190 
o mesh126
f 341//189 317//189 316//189 
f 316//189 348//189 341//189 
o mesh127
f 348//190 316//190 306//190 
f 306//190 339//190 348//190 
o mesh128
f 339//191 306//191 323//191 
f 323//191 340//191 339//191 
o mesh129
f 340//190 323//190 304//190 
f 304//190 346//190 340//190 
o mesh130
f 346//191 304//191 303//191 
f 303//191 344//191 346//191 
o mesh131
f 344//192 303//192 310//192 
f 310//192 342//192 344//192 
o mesh132
f 342//191 310//191 309//191 
f 309//191 347//191 342//191 
o mesh133
f 347//192 309//192 311//192 
f 311//192 337//192 347//192 
